<?xml version="1.0" standalone="no"?>
<!DOCTYPE svg PUBLIC "-//W3C//DTD SVG 20010904//EN"
 "http://www.w3.org/TR/2001/REC-SVG-20010904/DTD/svg10.dtd">
<svg version="1.0" xmlns="http://www.w3.org/2000/svg"
 width="100.000000pt" height="100.000000pt" viewBox="0 0 100.000000 100.000000"
 preserveAspectRatio="xMidYMid meet">
<metadata>
Created by potrace 1.11, written by Peter Selinger 2001-2013
</metadata>
<g transform="translate(0.000000,100.000000) scale(0.100000,-0.100000)"
fill="#000000" stroke="none">
<path d="M387 985 c-95 -24 -167 -65 -237 -135 -102 -102 -152 -227 -146 -369
14 -359 386 -583 710 -428 174 84 275 241 281 438 3 70 -2 100 -21 159 -56
165 -183 287 -343 330 -69 18 -180 21 -244 5z m256 -54 c68 -23 140 -67 180
-109 l28 -29 -54 -6 c-131 -13 -216 -105 -223 -239 -3 -63 20 -111 66 -136 46
-24 210 0 210 31 0 5 -8 6 -17 2 -71 -27 -146 -21 -178 15 -29 32 -31 114 -6
180 35 91 80 130 148 130 46 0 83 -25 83 -57 0 -15 2 -16 10 -3 13 20 46 -56
59 -136 38 -240 -118 -469 -353 -518 -208 -44 -410 55 -506 248 -41 81 -40
100 6 103 47 2 102 45 125 98 17 39 42 134 42 163 0 6 2 12 3 12 4 0 140 -242
147 -263 4 -11 14 -17 24 -15 17 3 20 12 37 123 10 62 35 167 47 198 12 30 45
43 83 33 30 -7 45 20 15 29 -31 10 -87 -14 -114 -49 -25 -33 -65 -166 -65
-215 0 -22 -2 -23 -14 -11 -8 8 -44 73 -81 143 l-67 128 -47 -6 c-77 -10 -132
-54 -147 -118 -6 -27 -6 -27 20 -16 14 7 26 18 26 26 0 43 55 93 102 93 8 0 4
-52 -7 -90 -2 -8 -6 -26 -9 -40 -27 -160 -48 -200 -106 -200 -50 0 -69 28 -64
96 6 85 28 151 72 220 113 174 334 253 525 185z"/>
<path d="M570 360 c-17 -4 -26 -14 -28 -30 l-3 -25 16 23 c22 30 74 27 86 -5
14 -38 -22 -66 -93 -72 -21 -2 -4 -26 18 -28 15 0 36 -10 47 -22 45 -45 -20
-112 -78 -81 -18 10 -29 10 -36 3 -15 -15 4 -25 47 -25 52 0 90 20 107 55 14
27 14 34 1 59 -8 15 -19 28 -24 28 -19 0 -10 17 15 28 30 14 44 58 24 77 -17
16 -65 24 -99 15z"/>
</g>
</svg>
